<svg width="120" height="37" viewBox="0 0 120 37" fill="none" xmlns="http://www.w3.org/2000/svg">
<g id="logo">
<g id="Group">
<path id="Union" d="M66.5428 16.0008C66.5428 14.5189 66.1971 13.3714 65.542 12.5322C64.8979 11.7131 63.9127 11.2874 62.5396 11.2874C61.1739 11.2874 60.09 11.7333 59.2156 12.6212L59.2152 12.6217C58.3462 13.4997 57.8982 14.7692 57.8982 16.471V16.7285H57.8886V26.699H54.9889V16.0008C54.9889 14.4935 54.6426 13.3428 53.9894 12.5194C53.3463 11.7147 52.3518 11.2922 50.9521 11.2922C49.5612 11.2922 48.4735 11.7389 47.6099 12.6251C46.7503 13.5072 46.3059 14.7134 46.3059 16.2743V26.7038H43.4062V9.09787H46.2052V11.0865C46.699 10.4112 47.2957 9.87531 47.9967 9.48329C48.9434 8.95384 50.0658 8.69482 51.3551 8.69482C52.7428 8.69482 53.9326 8.97663 54.9107 9.55406C55.7682 10.0603 56.4502 10.7862 56.9577 11.7223C57.5014 10.9346 58.2318 10.2586 59.1462 9.69296C60.2244 9.02597 61.4916 8.69482 62.9426 8.69482C64.991 8.69482 66.6089 9.33415 67.7524 10.6447C68.8839 11.9414 69.4425 13.5784 69.4425 15.5306V26.699H66.5428V16.0008Z" fill="white"/>
<path id="Union_2" fill-rule="evenodd" clip-rule="evenodd" d="M89.849 26.7038V9.09787H87.05V11.6006C85.6895 9.6582 83.5987 8.69482 80.8301 8.69482C78.2534 8.69482 76.2043 9.59544 74.7197 11.4088C73.2433 13.2062 72.5117 15.3816 72.5117 17.92C72.5117 20.4584 73.2433 22.6296 74.7205 24.413C76.2099 26.2113 78.2585 27.1068 80.8301 27.1068C82.3843 27.1068 83.7294 26.804 84.855 26.1856C85.7267 25.7066 86.4582 25.043 87.05 24.1992V26.7038H89.849ZM77.0442 13.2307L77.1051 13.1587V13.1553C78.1533 11.9596 79.5373 11.3546 81.2955 11.3546C83.0894 11.3546 84.4765 11.9747 85.4969 13.2092C86.5276 14.4561 87.05 16.0362 87.05 17.9152C87.05 19.793 86.5283 21.3399 85.4969 22.5877C84.4766 23.8221 83.0847 24.4423 81.2955 24.4423C79.5064 24.4423 78.0983 23.822 77.0436 22.5847C75.9801 21.3371 75.445 19.7865 75.445 17.9152C75.445 16.044 75.9801 14.4882 77.0442 13.2307Z" fill="white"/>
<path id="Union_3" d="M103.212 11.7529V8.97823L102.391 8.92993H102.383C100.939 8.92993 99.7224 9.21962 98.7541 9.82295C98.1071 10.226 97.5751 10.6737 97.1661 11.1694V9.09307H94.3672V26.699H97.2669V16.7397C97.2669 15.0639 97.7232 13.8253 98.5988 12.981C99.4831 12.1283 100.648 11.6953 102.115 11.6953C102.402 11.6953 102.672 11.7047 102.931 11.7278L103.212 11.7529Z" fill="white"/>
<path id="Union_4" d="M108.043 9.0979H105.144V19.9641C105.144 22.0348 105.767 23.7516 107.027 25.0921C108.299 26.4444 110.132 27.1021 112.488 27.1021C114.844 27.1021 116.677 26.4444 117.949 25.0921C119.209 23.7516 119.832 22.0348 119.832 19.9641V9.0979H116.933V19.7961C116.933 21.3215 116.541 22.4703 115.792 23.2824C115.047 24.089 113.963 24.5095 112.488 24.5095C111.013 24.5095 109.929 24.089 109.184 23.2824C108.434 22.4703 108.043 21.3215 108.043 19.7961V9.0979Z" fill="white"/>
</g>
<g id="Group 3">
<path id="Subtract" fill-rule="evenodd" clip-rule="evenodd" d="M20.2878 3.53853L29.9242 8.85355C30.7452 9.30383 31.3059 10.1205 31.4339 11.0564L33.0716 23.0593C33.279 24.5956 32.5242 26.1009 31.169 26.8381L21.1354 32.3076C18.2793 33.8659 14.8318 33.8659 11.9714 32.3076L1.93772 26.8381C0.582544 26.1009 -0.17671 24.5956 0.0351753 23.0593L1.67287 11.0564C1.80088 10.1249 2.36149 9.30824 3.18255 8.85355L12.8189 3.53853C15.1452 2.25392 17.9615 2.25392 20.2878 3.53853ZM14.6376 8.36355L9.51702 11.1623H9.52143C8.59885 11.6656 8.60326 12.9855 9.52585 13.4843L14.6817 16.2699C15.8118 16.8835 17.1714 16.8791 18.297 16.2699L23.6692 13.3563C24.4814 12.9149 24.4858 11.7494 23.6692 11.3036L18.2749 8.36355C17.1405 7.74553 15.772 7.74553 14.6376 8.36355Z" fill="url(#paint0_linear_20755_14459)"/>
</g>
</g>
<defs>
<linearGradient id="paint0_linear_20755_14459" x1="16.5528" y1="2.57507" x2="16.5528" y2="33.4764" gradientUnits="userSpaceOnUse">
<stop stop-color="#09C4FF"/>
<stop offset="0.809186" stop-color="#257CFF"/>
</linearGradient>
</defs>
</svg>
